<?xml version="1.0" encoding="UTF-8" standalone="no"?>
<!-- Created with Inkscape (http://www.inkscape.org/) -->
<svg xmlns:inkscape="http://www.inkscape.org/namespaces/inkscape" xmlns:rdf="http://www.w3.org/1999/02/22-rdf-syntax-ns#" xmlns="http://www.w3.org/2000/svg" xmlns:sodipodi="http://sodipodi.sourceforge.net/DTD/sodipodi-0.dtd" xmlns:cc="http://creativecommons.org/ns#" xmlns:xlink="http://www.w3.org/1999/xlink" xmlns:dc="http://purl.org/dc/elements/1.1/" xmlns:svg="http://www.w3.org/2000/svg" xmlns:ns1="http://sozi.baierouge.fr" id="svg2486" sodipodi:docname="simaforo33.svg" inkscape:export-filename="/home/multimedia4/Escritorio/saregune/desiño/simaforo33.png" viewBox="0 0 188.72 525.67" sodipodi:version="0.32" inkscape:export-xdpi="49.947426" version="1.0" inkscape:output_extension="org.inkscape.output.svg.inkscape" inkscape:export-ydpi="49.947426" inkscape:version="0.46">
  <defs id="defs2488">
    <linearGradient id="linearGradient2543" y2="1950.2" gradientUnits="userSpaceOnUse" x2="-774.27" y1="1950.2" x1="-968.74" inkscape:collect="always">
      <stop id="stop3614" style="stop-color:#1a1a1a" offset="0"/>
      <stop id="stop3616" style="stop-color:#1a1a1a;stop-opacity:0" offset="1"/>
    </linearGradient>
    <linearGradient id="linearGradient2541" y2="721.15" xlink:href="#linearGradient3555" gradientUnits="userSpaceOnUse" x2="-738.76" y1="682.37" x1="-603.78" inkscape:collect="always"/>
    <linearGradient id="linearGradient3555" inkscape:collect="always">
      <stop id="stop3557" style="stop-color:#ffffff" offset="0"/>
      <stop id="stop3559" style="stop-color:#ffffff;stop-opacity:0" offset="1"/>
    </linearGradient>
    <linearGradient id="linearGradient2535" y2="1137.5" xlink:href="#linearGradient3507" gradientUnits="userSpaceOnUse" x2="-904.17" y1="1137.5" x1="-1382.4" inkscape:collect="always"/>
    <linearGradient id="linearGradient3507" inkscape:collect="always">
      <stop id="stop3509" style="stop-color:#000000" offset="0"/>
      <stop id="stop3511" style="stop-color:#000000;stop-opacity:0" offset="1"/>
    </linearGradient>
    <linearGradient id="linearGradient2527" y2="643.25" gradientUnits="userSpaceOnUse" x2="-268.33" gradientTransform="matrix(.68468 0 0 1 -127.41 .0000080487)" y1="643.25" x1="-365.68" inkscape:collect="always">
      <stop id="stop3313" style="stop-color:#1a1a1a" offset="0"/>
      <stop id="stop3315" style="stop-color:#b3b3b3" offset="1"/>
    </linearGradient>
  </defs>
  <sodipodi:namedview id="base" bordercolor="#666666" inkscape:pageshadow="2" inkscape:window-y="0" pagecolor="#ffffff" inkscape:window-height="692" inkscape:zoom="0.5" inkscape:window-x="0" showgrid="false" borderopacity="1.0" inkscape:current-layer="layer1" inkscape:cx="-45" inkscape:cy="249.4314" inkscape:window-width="1018" inkscape:pageopacity="0.0" inkscape:document-units="px"/>
  <g id="layer1" inkscape:label="Capa 1" inkscape:groupmode="layer" transform="translate(-151.99 -69.528)">
    <g id="g2423" transform="translate(-60,50)">
      <g id="g2507" transform="matrix(.30595 0 0 .30595 529.75 -121.3)">
        <g id="g3487" transform="matrix(4.0174 0 0 4.0174 584.63 -821.19)">
          <rect id="rect3301" style="stroke-width:0;fill:url(#linearGradient2527)" rx="12" ry="12" height="427.68" width="153.54" y="318.99" x="-404.06"/>
          <rect id="rect3336" style="stroke-width:0;fill:#cccccc" ry="7.0711" height="66.67" width="14.142" y="482.64" x="-333.35"/>
          <rect id="rect3338" style="stroke-width:0;fill:#cccccc" ry="3.0305" height="38.386" width="6.0609" y="361.42" x="-278.8"/>
          <rect id="rect3340" style="stroke-width:0;fill:#cccccc" ry="2.0203" height="32.325" width="4.0406" y="397.78" x="-371.74"/>
        </g>
        <path id="path3497" sodipodi:rx="215.61145" sodipodi:ry="219.23517" style="fill-opacity:.95984;stroke:url(#linearGradient2535);stroke-width:47;fill:#d2ff03" sodipodi:type="arc" d="m-927.67 1137.5a215.61 219.24 0 1 1 -431.23 0 215.61 219.24 0 1 1 431.23 0z" transform="translate(420.35 -387.74)" sodipodi:cy="1137.5197" sodipodi:cx="-1143.2842"/>
        <path id="path3535" sodipodi:rx="215.61145" sodipodi:ry="219.23517" style="fill-opacity:0.751;stroke:url(#linearGradient2535);stroke-width:47;fill:#ff9b03" sodipodi:type="arc" d="m-927.67 1137.5a215.61 219.24 0 1 1 -431.23 0 215.61 219.24 0 1 1 431.23 0z" transform="translate(405.86 97.84)" sodipodi:cy="1137.5197" sodipodi:cx="-1143.2842"/>
        <path id="path3539" sodipodi:rx="215.61145" sodipodi:ry="219.23517" style="fill-opacity:0.751;stroke:url(#linearGradient2535);stroke-width:47;fill:#ff9b03" sodipodi:type="arc" d="m-927.67 1137.5a215.61 219.24 0 1 1 -431.23 0 215.61 219.24 0 1 1 431.23 0z" transform="translate(405.86 97.84)" sodipodi:cy="1137.5197" sodipodi:cx="-1143.2842"/>
        <path id="path3541" sodipodi:rx="215.61145" sodipodi:ry="219.23517" style="fill-opacity:0.751;stroke:url(#linearGradient2535);stroke-width:47;fill:#ff2103" sodipodi:type="arc" d="m-927.67 1137.5a215.61 219.24 0 1 1 -431.23 0 215.61 219.24 0 1 1 431.23 0z" transform="translate(398.35 577.72)" sodipodi:cy="1137.5197" sodipodi:cx="-1143.2842"/>
        <path id="path3545" sodipodi:rx="76.09816" sodipodi:ry="99.652351" style="fill:url(#linearGradient2541)" sodipodi:type="arc" d="m-590.67 699.05a76.098 99.652 0 1 1 -152.19 0 76.098 99.652 0 1 1 152.19 0z" inkscape:transform-center-y="28.989775" transform="matrix(.45228 -.58329 .67531 .52364 -813.72 -113.9)" sodipodi:cy="699.04932" sodipodi:cx="-666.76483"/>
        <path id="path3563" sodipodi:rx="76.09816" sodipodi:ry="99.652351" style="fill:url(#linearGradient2541)" sodipodi:type="arc" d="m-590.67 699.05a76.098 99.652 0 1 1 -152.19 0 76.098 99.652 0 1 1 152.19 0z" inkscape:transform-center-y="28.989775" transform="matrix(.45228 -.58329 .67531 .52364 -842.71 404.3)" sodipodi:cy="699.04932" sodipodi:cx="-666.76483"/>
        <path id="path3567" sodipodi:rx="76.09816" sodipodi:ry="99.652351" style="fill:url(#linearGradient2541)" sodipodi:type="arc" d="m-590.67 699.05a76.098 99.652 0 1 1 -152.19 0 76.098 99.652 0 1 1 152.19 0z" inkscape:transform-center-y="28.989775" transform="matrix(.45228 -.58329 .67531 .52364 -828.22 860.88)" sodipodi:cy="699.04932" sodipodi:cx="-666.76483"/>
        <path id="path3571" style="fill-rule:evenodd;fill:#1a1a1a" d="m-945.82 914.66s151.42 76.1 173.69 76.1-213.77 36.24-191.5 57.94c22.26 21.8 31.17-123.17 17.81-134.04z"/>
        <path id="path3573" style="fill-rule:evenodd;fill:#1a1a1a" d="m-949.44 1400.2s151.42 76.1 173.69 76.1c22.26 0-213.78 36.3-191.51 58 22.27 21.8 31.18-123.2 17.82-134.1z"/>
        <path id="path3575" sodipodi:nodetypes="cssc" style="fill-rule:evenodd;fill:url(#linearGradient2543)" d="m-967.56 1871.3s169.54 97.9 191.81 97.9c22.26 0-213.78 36.2-191.51 57.9 22.27 21.8 13.06-144.9-0.3-155.8z"/>
      </g>
    </g>
  </g>
  <metadata>
    <rdf:RDF>
      <cc:Work>
        <dc:format>image/svg+xml</dc:format>
        <dc:type rdf:resource="http://purl.org/dc/dcmitype/StillImage"/>
        <cc:license rdf:resource="http://creativecommons.org/licenses/publicdomain/"/>
        <dc:publisher>
          <cc:Agent rdf:about="http://openclipart.org/">
            <dc:title>Openclipart</dc:title>
          </cc:Agent>
        </dc:publisher>
        <dc:title>Semaphore icon</dc:title>
        <dc:date>2009-01-16T10:33:44</dc:date>
        <dc:description/>
        <dc:source>https://openclipart.org/detail/21173/semaphore-icon-by-43ad5web-21173</dc:source>
        <dc:creator>
          <cc:Agent>
            <dc:title>43ad5web</dc:title>
          </cc:Agent>
        </dc:creator>
        <dc:subject>
          <rdf:Bag>
            <rdf:li>city</rdf:li>
            <rdf:li>color</rdf:li>
            <rdf:li>icon</rdf:li>
            <rdf:li>semaphore</rdf:li>
            <rdf:li>traffic</rdf:li>
          </rdf:Bag>
        </dc:subject>
      </cc:Work>
      <cc:License rdf:about="http://creativecommons.org/licenses/publicdomain/">
        <cc:permits rdf:resource="http://creativecommons.org/ns#Reproduction"/>
        <cc:permits rdf:resource="http://creativecommons.org/ns#Distribution"/>
        <cc:permits rdf:resource="http://creativecommons.org/ns#DerivativeWorks"/>
      </cc:License>
    </rdf:RDF>
  </metadata>
</svg>